<?xml version="1.0" encoding="iso-8859-1"?>
<!-- Generator: Adobe Illustrator 18.1.1, SVG Export Plug-In . SVG Version: 6.00 Build 0)  -->
<svg version="1.1" id="Capa_1" xmlns="http://www.w3.org/2000/svg" xmlns:xlink="http://www.w3.org/1999/xlink" x="0px" y="0px"
	 viewBox="0 0 411.842 411.842" style="enable-background:new 0 0 411.842 411.842;" xml:space="preserve">
<g>
	<path style="fill:#010002;" d="M8.129,387.123h395.585c4.487,0,8.129-3.642,8.129-8.129V116.165c0-4.487-3.642-8.129-8.129-8.129
		H8.129c-4.487,0-8.129,3.642-8.129,8.129v262.821C0,383.482,3.633,387.123,8.129,387.123z M16.257,124.294h379.328v246.564H16.257
		V124.294z"/>
	<path style="fill:#010002;" d="M290.556,91.78c4.487,0,8.129-3.642,8.129-8.129V32.848c0-4.487-3.642-8.129-8.129-8.129H121.278
		c-4.487,0-8.129,3.642-8.129,8.129v50.804c0,4.487,3.642,8.129,8.129,8.129c4.487,0,8.129-3.642,8.129-8.129V40.976h153.012v42.675
		C282.427,88.138,286.061,91.78,290.556,91.78z"/>
</g>
<g>
</g>
<g>
</g>
<g>
</g>
<g>
</g>
<g>
</g>
<g>
</g>
<g>
</g>
<g>
</g>
<g>
</g>
<g>
</g>
<g>
</g>
<g>
</g>
<g>
</g>
<g>
</g>
<g>
</g>
</svg>
