<svg id="Capa_1" enable-background="new 0 0 512 512" height="512" viewBox="0 0 512 512" width="512" xmlns="http://www.w3.org/2000/svg"><g><path d="m456 392h-400c-19.299 0-35 15.701-35 35v50c0 19.299 15.701 35 35 35h400c19.299 0 35-15.701 35-35v-50c0-19.299-15.701-35-35-35zm-360 75c-8.284 0-15-6.716-15-15s6.716-15 15-15 15 6.716 15 15-6.716 15-15 15zm60 0c-8.284 0-15-6.716-15-15s6.716-15 15-15 15 6.716 15 15-6.716 15-15 15zm60 0c-8.284 0-15-6.716-15-15s6.716-15 15-15 15 6.716 15 15-6.716 15-15 15zm200 0h-110c-8.284 0-15-6.716-15-15s6.716-15 15-15h110c8.284 0 15 6.716 15 15s-6.716 15-15 15z"/><g><path d="m190.561 362h130.879l-12.683-52h-105.513z"/></g><g><path d="m451 190v-145c0-24.813-20.187-45-45-45h-300c-24.813 0-45 20.187-45 45v145z"/><path d="m61 220v15c0 24.813 20.187 45 45 45h300c24.813 0 45-20.187 45-45v-15z"/></g></g></svg>