<?xml version="1.0" encoding="UTF-8"?>
<svg width="2666.7" height="2666.7" version="1.1" viewBox="0 0 2666.6667 2666.6667" xml:space="preserve" xmlns="http://www.w3.org/2000/svg" xmlns:cc="http://creativecommons.org/ns#" xmlns:dc="http://purl.org/dc/elements/1.1/" xmlns:rdf="http://www.w3.org/1999/02/22-rdf-syntax-ns#"><metadata><rdf:RDF><cc:Work rdf:about=""><dc:format>image/svg+xml</dc:format><dc:type rdf:resource="http://purl.org/dc/dcmitype/StillImage"/></cc:Work></rdf:RDF></metadata><g transform="matrix(1.3333 0 0 -1.3333 0 2666.7)"><g transform="scale(.1)"><g transform="scale(1.227)"><path d="M 16300,0 H 0 V 16300 H 16300 V 0" fill="#fff"/></g><g transform="scale(1.0942)"><path d="m14430 3647s1653.9 156.37 1762.2 1981.9-2948.2 4081.7-3444.7 4986.4c-496.3 904.7-1282.5 3614.7-3518.2 3703-2235.6 88.4-3753-6.1-4392.3-2131.9-639.36-2125.8-1397.5-3385.6-2128.5-4200.7-731.04-815.2-1137.2-3645.1 622.75-4346l11099 7.31" fill="#f9e8f2"/></g><path d="m10386 14983h2360.8v-1725.3l-675.6 543.2h-1685.2v1182.1" fill="#eab7c2"/><path d="m10401 13816h1675.5l4.1-3.3 651.2-523.6v1679h-2330.8zm2360.8-589.5-695.9 559.5h-1694.9v1212.1h2390.8v-1771.6" fill="#1b2746"/><path d="m12432 14685h-1679c-8.3 0-15 6.7-15 15s6.7 15 15 15h1679c8.3 0 15-6.7 15-15s-6.7-15-15-15" fill="#0e2549"/><path d="m12432 14422h-1102.7c-8.3 0-15 6.7-15 15s6.7 15 15 15h1102.7c8.3 0 15-6.7 15-15s-6.7-15-15-15" fill="#0e2549"/><path d="m8789.1 16010h-2122.7v-1584.3l607.49 498.8h1515.2v1085.5" fill="#eab7c2"/><path d="m6681.4 15995v-1537.5l587.12 482h1505.6v1055.5zm-30-1601v1631h2152.7v-1115.5h-1524.9l-627.86-515.5" fill="#1b2746"/><path d="m8459 15735h-1481.1c-8.29 0-15 6.7-15 15 0 8.2 6.71 15 15 15h1481.1c8.29 0 15-6.8 15-15 0-8.3-6.71-15-15-15" fill="#0e2549"/><path d="m8459 15494h-1481.1c-8.29 0-15 6.7-15 15s6.71 15 15 15h1481.1c8.29 0 15-6.7 15-15s-6.71-15-15-15" fill="#0e2549"/><path d="m7660.9 15254h-682.96c-8.29 0-15 6.7-15 15s6.71 15 15 15h682.96c8.28 0 15-6.7 15-15s-6.72-15-15-15" fill="#0e2549"/><path d="m5171.4 8738.1 8392.9 16.1c46.3 0 84.2 54 84.2 120v14c0 66-37.9 120-84.2 120l-8392.9-16.2c-46.28 0-84.15-54-84.15-120v-13.9c0-66 37.87-120 84.15-120" fill="#ebf4fe"/><path d="m13564 8993.2-8392.8-16.2c-37.5 0-69.17-48.1-69.17-105v-13.9c0-56.9 31.66-105 69.13-105l8392.9 16.1c37.5 0 69.2 48.1 69.2 105v14c0 56.9-31.7 105-69.2 105zm-8392.8-270.1h-0.02c-54.67 0-99.15 60.5-99.15 135v13.9c0 74.5 44.48 135 99.15 135l8392.9 16.2c54.7 0 99.2-60.6 99.2-135v-14c0-74.4-44.5-135-99.2-135l-8392.8-16.1" fill="#0e2549"/><path d="m13937 3989.8h254l-1171.1 4762.5h-254l1171.1-4762.5" fill="#ebf4fe"/><path d="m13948 4004h224.9l-1164.1 4734.2h-225zm261-28.3h-283.2l-2.6 10.8-1175.4 4779.9h283.1l2.6-10.7 1175.5-4780" fill="#0e2549"/><path d="m5202.9 3989.8h-254.04l700.52 4748.3h254.04l-700.52-4748.3" fill="#ebf4fe"/><path d="m4966.2 4004.8h223.71l696.1 4718.3h-223.72zm249.61-30h-284.36l704.94 4778.3h284.37l-704.95-4778.3" fill="#0e2549"/><path d="m8144.9 9245.4h929l-198 939.7h-928.99l197.99-939.7" fill="#f9e5ef"/><path d="m8157 9260.4h898.34l-191.68 909.7h-898.34zm935.32-30h-959.65l-204.33 969.7h959.66l204.32-969.7" fill="#1b2746"/><path d="m8577.3 10864 1.43-37.3 137.85 5.2-1.43 37.4-137.85-5.3" fill="#fff"/><path d="m6265.2 9961.9h4438.3c149.8 0 271.4 121.5 271.4 271.4l-707 3074.8c-21.1 165.1-121.5 271.4-271.43 271.4h-4438.2c-149.89 0-271.39-121.5-271.39-271.4l706.99-3074.8c35.31-150.7 121.51-271.4 271.39-271.4" fill="#e2474b"/><path d="m5301.8 13310 706.6-3073.1c22.71-97 86.3-259.8 256.77-259.8h4438.3c140.8 0 255.4 114.1 256.3 254.7l-706.7 3073.9-0.1 0.8c-20.7 161.7-116.6 258.2-256.53 258.2h-4438.2c-140.81 0-255.48-114.1-256.38-254.7zm5401.7-3362.9h-4438.3c-139.62 0-243.87 103.2-286 283l-707.38 3076.5v1.7c0 158 128.48 286.4 286.39 286.4h4438.2c153.93 0 263.53-108.7 286.23-283.7l707.2-3075.8v-1.7c0-157.9-128.5-286.4-286.4-286.4" fill="#0e2549"/><path d="m6251.9 10426h4422.7l-706.96 2908.4h-4422.7l706.99-2908.4" fill="#f9e5ef"/><path d="m6263.7 10441h4391.8l-699.65 2878.4h-4391.9zm4430-30h-4453.6l-714.28 2938.4h4453.6l2.79-11.5 711.48-2926.9" fill="#1b2746"/><path d="m9232.7 10641-43.2-0.2-289.5-1.1-24.6-0.1-959.3-3.7-422.6-1.6-29.3-0.1-47.8-0.2h-2.4l-127-0.5h-0.1l-33.2-0.1-18.2-0.1-228-0.9h-5.8l-66.2-0.2-118.7-0.5h-17l-2.1-0.1-195.9-0.7-131.6-0.5-635.3 2488.9 2762.5 10.5 588.3-2304.8 32.4-126.8 14.6-57.2" fill="#eab7c2"/><path d="m7650.7 9000.4h1919.1v248.7h-1919.1v-248.7" fill="#eab7c2"/><path d="m7665.7 9015.4h1889.1v218.7h-1889.1zm1919.1-30h-1949.1v278.7h1949.1v-278.7" fill="#1b2746"/><path d="m7382.5 13756h652.54v248.7h-652.54v-248.7" fill="#eab7c2"/><path d="m7397.5 13771h622.54v218.7h-622.54zm652.54-30h-682.54v278.7h682.54v-278.7" fill="#1b2746"/><path d="m8354.4 10189c0-60.1 48.72-108.8 108.81-108.8s108.81 48.7 108.81 108.8-48.72 108.8-108.81 108.8-108.81-48.7-108.81-108.8" fill="#0e2549"/><path d="m7865.4 10651-632.4 2458.9 1352.7 5.1 627.65-2458.8zm-2011.3 2453.6 1347.9 5.2 632.4-2458.9-1352.7-5.2zm2757.7 29.2-2.89 11.3-2793.4-10.6 640.05-2507.6 2.9-11.3 2416.9 9.3 376.53 1.5-640.06 2507.4" fill="#1b2746"/><path d="m8916.4 11865h-2765.2v30h2765.2v-30" fill="#1b2746"/><path d="m7600.3 13756 35.3-176.4h219.53l-32.48 176.4h-222.35" fill="#f9e5ef"/><path d="m7647.9 13594h189.23l-26.96 146.4h-191.56zm225.25-30h-249.84l-41.3 206.4h253.14l38-206.4" fill="#1b2746"/><path d="m7779.7 13874c0-39.8-32.26-72.1-72.06-72.1-39.79 0-72.05 32.3-72.05 72.1s32.26 72.1 72.05 72.1c39.8 0 72.06-32.3 72.06-72.1" fill="#0e2549"/><path d="m9806.8 13015h-856.47c-8.29 0-15 6.7-15 15s6.71 15 15 15h856.47c8.28 0 15-6.7 15-15s-6.72-15-15-15" fill="#1b2746"/><path d="m9587.9 12834h-418.82c-8.29 0-15 6.7-15 15s6.71 15 15 15h418.82c8.29 0 15-6.7 15-15s-6.71-15-15-15" fill="#1b2746"/><path d="m9831.5 11324c-157.95 0-286.45-128.5-286.45-286.4s128.5-286.4 286.45-286.4 286.42 128.5 286.42 286.4-128.47 286.4-286.42 286.4zm0-602.8c-174.49 0-316.45 141.9-316.45 316.4s141.96 316.4 316.45 316.4c174.52 0 316.42-141.9 316.42-316.4s-141.9-316.4-316.42-316.4" fill="#1b2746"/><path d="m9835.3 11132c-67.23-1.5-148.14-20.9-187.35-45.2-49.62-30.7-48.82-78.9-46.34-115.7 1.29-18.9 18.6-30.8 36.76-25.2l75.7 20.3c15.31 4.7 25.46 20.4 23.57 36l-9.01 42.8c-0.32 3 2.21 5.9 5.42 5.7 19.6-1.2 181.13-0.4 200.9 2.4 3.14 0.5 5.56-2.4 4.73-5.7l-8.7-41.5c-4.61-17.8 6.03-34.7 23.35-36.7l69.76-17.6c16.9-1.9 33.3 11.3 35.9 28.9 12.4 85.8-28.2 118.3-61.02 129.2-21.49 7.2-106.33 23.6-163.67 22.3" fill="#e2474b"/><path d="m6376.4 9348.6c-52.54-83.6-131.9-130.9-220.05-131.8 41.66 67.2 65.78 146.5 65.78 231.4v112.7c39.01 26.8 96.88 58.9 141.51 51.4 19.67-3.3 34.56-14.3 45.53-33.6 30.74-54.1 16.95-150.9-32.77-230.1zm58.86 244.9c-15.49 27.3-37.93 43.6-66.68 48.4-47.79 8.1-104.17-18.4-146.45-45v118.4h-880v-267.1c0-243 196.99-440 440-440 145.34 0 274.17 70.5 354.29 179.1 5.84-0.3 11.66-0.5 17.44-0.5 99.65 0 189.22 52.3 247.94 145.8 56.15 89.4 69.91 196.7 33.46 260.9" fill="#e2474b"/><path d="m5618 9118.6c-3.26 0-6.57 0.8-9.64 2.4-202.29 111.7-178.08 451.1-176.94 465.5 0.86 11 10.42 19.4 21.49 18.3 11.01-0.8 19.24-10.4 18.38-21.4-0.25-3.3-23.31-328.2 156.4-427.3 9.66-5.4 13.18-17.5 7.84-27.2-3.64-6.6-10.48-10.3-17.53-10.3" fill="#fff"/><path d="m6000.7 9785.5c-3.82 0-7.64 1.5-10.57 4.4-81.26 80.6-109.29 113.6-107.76 213.4 1.41 92.3 44.57 132 86.31 170.4 28.72 26.4 55.85 51.3 69.4 93.9 31.31 98.4-103.29 199.9-104.65 200.9-6.65 4.9-8.04 14.3-3.1 21 4.94 6.6 14.33 8 20.97 3.1 6.27-4.7 153.18-115.3 115.36-234.1-15.96-50.2-47.34-79-77.68-106.9-38.78-35.7-75.4-69.3-76.61-148.8-1.35-88.1 21.03-114.3 98.89-191.6 5.88-5.8 5.92-15.4 0.08-21.2-2.93-3-6.78-4.5-10.64-4.5" fill="#0e2549"/><path d="m5609.7 9785.5c-3.82 0-7.64 1.5-10.56 4.4-81.27 80.7-109.3 113.6-107.77 213.4 1.41 92.3 44.57 132 86.31 170.4 28.72 26.4 55.85 51.3 69.39 93.9 31.32 98.4-103.28 199.9-104.64 200.9-6.65 4.9-8.04 14.3-3.1 21 4.94 6.6 14.32 8 20.97 3.1 6.27-4.7 153.18-115.3 115.36-234.1-15.96-50.2-47.34-79-77.68-106.9-38.77-35.7-75.4-69.3-76.61-148.8-1.36-88.1 21.03-114.3 98.9-191.6 5.88-5.8 5.92-15.4 0.08-21.2-2.93-3-6.79-4.5-10.65-4.5" fill="#0e2549"/><path d="m5818.8 9864.8c-3.82 0-7.65 1.5-10.57 4.4-81.27 80.6-109.29 113.6-107.77 213.3 1.42 92.4 44.58 132.1 86.31 170.4 28.72 26.4 55.85 51.4 69.4 94 31.31 98.4-103.29 199.9-104.65 200.9-6.65 4.9-8.04 14.3-3.1 21 4.95 6.6 14.33 8 20.98 3.1 6.27-4.7 153.17-115.3 115.35-234.1-15.96-50.2-47.34-79-77.67-106.9-38.78-35.7-75.4-69.4-76.62-148.8-1.35-88.1 21.04-114.3 98.9-191.6 5.88-5.9 5.92-15.4 0.08-21.2-2.93-3-6.79-4.5-10.64-4.5" fill="#0e2549"/><path d="m8380.2 11757c-41.74-1.8-143.21-4.7-147.96-78.7-5.43-84.4 1.87-193.9 6.7-251.6 1.9-22.7 20.2-40.7 43-42.1l255.45-16.5c23.4-1.5 44.2 14.8 48.36 37.9 13.99 77.7 35.7 244.1 28.01 269.7-26.18 87-167.47 84-233.56 81.3" fill="#0e2549"/><path d="m8285.4 11364s-5.4-198.2-24.39-219.6-113.92-66.9-113.92-66.9l299.52-216.9 200.59 131.6s-98.41 99.6-106.21 126.3c-10.81 37 3.94 228.8 3.94 228.8l-259.53 16.7" fill="#fff"/><path d="m8446.2 10842-328.31 237.9 22.74 10.9c35.64 17 96.81 49.3 109.16 63.2 9.5 13.9 18.16 120 20.62 210.1 0.23 8.3 7 15 15.41 14.6 8.28-0.2 14.81-7.1 14.58-15.4-1.67-61.2-7.75-206.1-28.15-229.2-14.89-16.8-65.81-43.9-96.21-59.3l271-196.3 176.71 116c-31.37 32.4-90.07 95.3-97.15 119.5-11.25 38.5 1.85 214.2 3.38 234.1 0.64 8.3 7.81 14.4 16.1 13.9 8.27-0.7 14.45-7.9 13.81-16.2-5.62-73.1-11.81-198.4-4.5-223.4 4.17-14.2 56.44-73.3 102.49-119.9l12.87-13.1-224.55-147.4" fill="#0e2549"/><path d="m8384 11291c71.9-13.1 163.24-5.2 189.97 18.3 15.66 13.8 25.31 71.6 31.26 137.9 0.17 2 9.54 237.8 9.54 237.8l-324.01 20.8s-3.96-71.4-6-151.7c-0.1-3.6-4.1-5.7-7.1-3.7-16.5 11-39.57 20.6-42.19-9.3-3.25-37.3 28.66-62.7 45.31-71.9 1.73-0.9 2.79-2.7 2.8-4.7 0.12-56.8 2.4-105.9 9.07-123.7 3.64-9.7 11.26-18.1 21.76-25.1l69.59-24.7" fill="#fff"/><path d="m8458 11269c-26.32 0-53.03 2.2-76.74 6.5-8.14 1.5-13.55 9.3-12.08 17.5 1.49 8.1 9.34 13.5 17.45 12 73.7-13.3 157.3-2.8 177.38 14.9 2.67 2.3 16.5 19.5 26.22 128 0.22 4 5.63 139.7 8.92 222.4l-294.25 18.9c-1.26-25.2-3.73-78.7-5.2-136.2-0.18-7.1-4.22-13.6-10.54-16.9-6.31-3.2-13.94-2.8-19.86 1.1-9.63 6.4-15.38 8-17.63 8.2-0.39-0.9-1-2.8-1.3-6.3-2.97-34.1 33.43-55.1 37.6-57.4 6.5-3.6 10.54-10.5 10.56-17.9 0.19-84.7 5.17-110.6 8.12-118.5 2.36-6.3 7.77-12.3 16.08-17.9 6.87-4.6 8.7-13.9 4.07-20.8-4.62-6.9-13.94-8.7-20.82-4.1-13.6 9.2-22.82 20-27.43 32.3-4.12 11-9.59 35.8-10.01 123.5-25.23 15.7-51.35 45.6-48.06 83.4 1.68 19.2 10.6 27.4 17.8 30.8 8.98 4.4 19.51 3.9 31.9-1.5 2.11 72.4 5.51 134.3 5.55 135l0.84 15.1 353.72-22.8-0.58-14.6c-6.23-156.7-9.46-237-9.59-238.5-10.01-111.6-24.66-137.6-36.31-147.9-22.02-19.3-73.12-28.3-125.81-28.3" fill="#0e2549"/><path d="m8283.3 11470s8.99-10.2 27.87-31.2c21.79-24.3 237.61-25.6 253.22-19 34.37 14.7 27.67 44.5 40 41.1 15.26-4.1-11.63-155.3-29.06-175.7-17.42-20.4-174.03-17.8-256.75 4.8-68.72 18.7-35.28 180-35.28 180" fill="#0e2549"/><path d="m8289.2 11689s237.38-85.5 352.24-7.4c114.85 78-58.73 92.7-163.94 88.8-105.2-3.9-253.17-15.7-188.3-81.4" fill="#0e2549"/><path d="m7911.1 10639c62.7 174.5 170.2 415.4 290.6 450.7 4.2 1.2 99.5-21 168.4-34 15.7 14.9 38.6 16.7 69.9 1.8 0.2 0 0.3-0.1 0.5-0.2 3.2-1.6 132.4 25.4 136.7 25.9 51.1 6.4 367.24-357.8 408.44-442.5 0-0.5-1074.5-1.7-1074.5-1.7" fill="#fff"/><path d="m8203.4 11074c-84.98-27.1-180.84-175.9-270.91-420.6 136.49 0.2 880.58 1.1 1027.5 1.5-72.48 115.6-341.92 410.2-381.5 412.8-1.36-0.3-12.6-2.6-27.73-5.6-88.78-18-106.3-21.2-113.04-20.2h-1.14l-3.06 1.4c-35.98 17.2-48.87 5-53.1 0.9l-5.57-5.3-7.55 1.4c-33.03 6.3-72.48 14.7-104.18 21.5-25.47 5.4-51.74 11-59.7 12.2zm-313.68-450.7 7.22 20.1c68.14 189.7 175.59 423.5 300.5 460.1 5.37 1.5 5.95 1.7 71.92-12.4 29.36-6.3 65.39-14 96.59-20 15.16 11 39.7 17.7 77.28 0.8 14.61 2 72.61 13.7 101.56 19.6 25.27 5.1 29 5.8 30.66 6 67.54 8.9 388.24-378 423.64-450.9l1.51-3.1v-3.4c0-15-12.52-15-27.01-15.1l-34.13-0.1c-29.38-0.1-71.36-0.2-121.74-0.3-100.73-0.2-235.05-0.4-369.37-0.5-268.64-0.4-537.27-0.7-537.27-0.7l-21.36-0.1" fill="#0e2549"/><path d="m8557.7 10656-118.8-0.3-11.35 299.9-55.6 62.6 73 43.6 73.5-43.6-38.4-56.4 77.65-305.8" fill="#e2474b"/><path d="m8444.9 11067-122.45-81.7-169.96 99 81.38 43 211.03-60.3" fill="#fff"/><path d="m8444.9 11067 94.93-70.1 107.36 58.8-53.32 48.5-148.97-37.2" fill="#fff"/><path d="m8589.7 11087 31.82-28.9-80.51-44.2-61.63 45.6zm-267.81-84.7-138.53 80.7 52.17 27.6 174.06-49.8zm350.92 49.7-74.8 68-152.86-38.1-212.98 60.8-110.58-58.5 201.38-117.2 121.47 81 94.17-69.6 134.2 73.6" fill="#0e2549"/><path d="m6904.1 12601s-22.86-198.7-6.26-220.4c16.6-21.6 113.62-60.6 113.62-60.6l-171.94-346.6-310.37-0.3-54.45 254.9s161.15 124.3 171.11 149.4c13.79 34.9 16.39 220 16.39 220l241.9 3.6" fill="#fff"/><path d="m6516.7 11958-59.1 276.6 7.69 5.9c76.02 58.6 159 128.2 166.28 143.1 9.2 23.3 14.24 143.9 15.22 214.3 0.13 8.6 7.1 15.4 15.63 15.2 8.52-0.1 15.32-7.1 15.2-15.6-0.27-19.2-3.05-189-17.46-225.4-9.9-25-115.5-109.1-168.35-150.1l49.82-233.2 288.34 0.3 160.35 323.2c-30.5 12.9-89.83 39.8-104.71 59.3-17.74 23.2-5.62 154.9 3.18 231.4 0.98 8.5 8.6 14.6 17.08 13.6 8.46-1 14.53-8.6 13.56-17.1-10.23-88.9-16.53-194.4-8.88-209.9 8.2-10.6 61.89-37 106.66-55l15.48-6.2-183.59-370.1-332.4-0.3" fill="#0e2549"/><path d="m6846.4 12992c43.61-4.2 149.74-13.2 147.77-86.7-2.24-83.8-20.18-191.5-30.66-248.3-4.15-22.4-25.02-39-49.08-39.1l-269.42-0.9c-24.69-0.1-44.97 17.3-47.16 40.3-7.38 77.7-21.45 242.1-10.98 266.9 35.63 84.5 190.47 74.5 259.53 67.8" fill="#0e2549"/><path d="m6664.4 12563c-14.17 14.2-18.5 70.3-18.44 134.4 0 1.8-1.01 3.5-2.64 4.4-17.42 9.8-39.35 28.4-37.75 60.2 1.37 27.6 19.3 24.3 35.71 15.5 2.93-1.5 6.6 0.6 6.74 3.9 3.39 77.2 9.72 144.9 9.72 144.9l320.16 1.1s-2.47-68.9-7.61-146.1c-0.23-3.5-18.6-187.8-26.74-204.5-4.43-9.1-12.65-16.7-23.6-22.8 0 0-20.97-15.9-137.32-16.3l-118.23 25.3" fill="#fff"/><path d="m6782.7 12522c-8.53 0-15.46 7-15.48 15.5-0.03 8.5 6.87 15.5 15.42 15.5 99.81 0.3 125.69 12 128.65 13.6l1.12 0.6c8.64 4.9 14.45 10.3 17.3 16.2 6.49 16.4 23.63 179.1 25.21 198.8 3.6 54.1 5.91 104.6 6.94 129.5l-289.87-1c-2-23.7-6.01-74.8-8.43-130.2-0.3-6.9-4.08-13.1-10.12-16.5-6.06-3.5-13.32-3.6-19.41-0.3-6.54 3.5-10.19 4.3-11.77 4.4-0.4-1.1-0.97-3.2-1.16-7-0.94-18.8 9.12-34.3 29.9-46 6.49-3.7 10.51-10.6 10.51-17.9-0.09-106.4 12.47-122 13.9-123.4 6.05-6 6.06-15.8 0.01-21.9-6.03-6-15.84-6.1-21.89 0-10.56 10.5-22.62 36-22.97 139.4-27.53 17.4-41.83 42.5-40.39 71.3 0.8 16 6.36 27 16.52 32.7 7.45 4.2 16.37 4.9 26.66 2 3.47 70.2 8.98 129.6 9.04 130.3l1.31 14 350.32 1.1-0.58-16.1c-0.03-0.6-2.54-70-7.63-146.6-0.12-1.7-18.14-189.4-28.27-210.2-5.58-11.4-15.46-21.3-29.39-29.2-8.07-5.2-38.94-18.2-145.4-18.6h-0.05" fill="#0e2549"/><path d="m7111 12269c-38.62 25.9-72.81 45.4-100.7 58.3l4.25 1.9-70.01 72.5-156.51-72.4-206.04 81-77.84-62.1c-87.03-51.4-251.06-237-348.25-468.2h1195.2c-41.9 113.1-128.9 314.4-240.1 389" fill="#e2474b"/><path d="m6718.1 12268-203.7 69.6 70.11 55.9 178.81-70.3zm270.51 66.7-136.18-58.6-40.37 48.1 129.04 59.7zm-177.78-55.7 32.95-39.2 196.59 84.5-92.5 95.8-160.38-74.2-208.14 81.9-126.45-100.9 275.2-94.1 50.12 61.2c10.35-68 34.92-232.6 58.75-415.7 0.98-7.5 7.43-13 14.85-13 0.65 0 1.3 0 1.96 0.1 8.21 1.1 14 8.6 12.93 16.8-21.81 167.6-44.25 319.8-55.88 396.8" fill="#0e2549"/><path d="m6921 12892c38.22 3.3 110.18 20.4 101.55 98-8.63 77.7-22.93 49-22.93 49s-15.42-17.8-21.38-18.7c-5.97-0.8 6.43-4.8-14.74 59.2 0 0-56.88 9.3-80.66-28.3-23.79-37.5-41.68-17.5-51.22 0.6-8.09 15.5-31.6-5.6-35.93-21.8-8.47-18.2-95.63-11.5-121.13-25.7-40.36-22.5-54.29-31.9-52.33-87.5 0.37-10.7 18.33-114.4 18.33-114.4l31.04 110.4s186.94-26.1 249.4-20.8" fill="#0e2549"/><path d="m8120.6 13030s129.6 4.3 195.87-108.4c17.51-29.8 16.56-35.1 7.77-67.9-3.67-13.6 20.13-29.9 19.48-48.8-0.37-10.5-6.77-25.4-6.26-36.8 0.7-15.8 16.46-22.8 18.77-39.1 1.46-10.4-13.89-20.3-11.82-30.4 2.16-10.5 22.24-17.8 25.04-27.8 3.71-13.2-6.15-22.8-6.15-35.5 0-15.2 11.78-18.7 26.31-27.8 10.61-6.6-0.05-40.2 6.26-46.6 5.59-5.6 22.25-15.6 24.34-21.5 4.87-13.9-5.79-24.5-4.17-32 2.53-11.8 25.2-15.9 28.78-26.4 3.47-10.2-5.42-26.7-7.92-39-2.08-10.2 17.48-20.3 18.43-27.8 2.78-22.3-4.66-36.4-5.21-43.8-0.72-9.7 24.16-29 23.64-41.5-10.9-262.2-706.29-211.8-698.75-27.7 0.47 11.5 25.03 18.9 17.21 32.4-5.44 9.4-10.18 16.7-14.09 27.6-4.22 11.7 20.35 22.3 25.57 33.3 7.98 17-24.07 26.6-14.61 59 7.3 25 31.3 19.8 29.21 39.6-1.69 16.1-18.59 36.9-15.65 50.1 9.04 40.5 43.89 44.1 31.29 56.3-13.55 13.2-22.53 19.5-16.97 47.8 2.39 12.1 20.45 38.3 20.45 38.3-1.74 21.6-25.03 33.8-16.69 67.6 11.88 48.1 28.11 12.2 23.65 86.6-0.8 13.3 22.66 222.6 276.22 190.2" fill="#0e2549"/><path d="m8007.9 12632s9.17-225.3 0.56-237.2c-29.45-40.6-116.68-76.3-136.59-81.6-19.91-5.4 301.96-210.2 301.96-210.2l189.49 154.3-63.94 57.7s-53.74 27-77.36 51.4-35.1 253.7-35.1 253.7l-179.02 11.9" fill="#fff"/><path d="m7897.8 12306c40.84-32.3 161.95-112.8 274.96-184.9l167.53 136.4-49.47 44.6c-10.02 5.2-56.75 29.9-79.56 53.5-23.41 24.2-34.45 173.6-38.61 250l-149.1 9.9c8.33-214.4 0.46-225.2-2.94-229.9-25.69-35.4-87.24-65.5-122.81-79.6zm277.12-221.8-9.13 5.8c-313.41 199.4-311.39 212.6-309.61 224.2 0.97 6.4 5.49 11.4 11.8 13.1 20.88 5.6 100.24 39.5 127.17 74.3 3.71 18.3 1.83 129.5-2.23 229.4l-0.68 16.7 209-14 0.67-13.3c5.29-105.6 18.66-229 31.01-244.1 17.81-18.4 58.9-41.1 73.21-48.3l1.81-0.9 78.43-70.8-211.45-172.1" fill="#0e2549"/><path d="m8028 12577c-26.48 17.6-90.24 70.6-91.49 105.3-1.24 34.7 38.31 30.6 50.39 25.1 8.04-3.6-0.17 169.8-0.17 169.8l268.41 14.4s39.77-149.1 30.17-244.9c-9.65-96.2-54.7-112.2-123.7-124.2l-133.61 54.5" fill="#fff"/><path d="m8161.6 12508c-7.16 0-13.49 5.2-14.76 12.5-1.42 8.1 4.04 15.9 12.21 17.3 69.33 12.1 102.92 27 111.34 110.9 7.69 76.7-17.86 191.1-26.78 227.8l-241.2-13c7.16-158.7 1.1-162.8-6.51-167.9l-6.96-4.8-8.23 3.5c-5.08 2.3-18.96 3.9-25.5-0.5-1.19-0.8-3.98-2.7-3.7-10.5 0.83-23.1 50.78-70.7 84.79-93.3 6.9-4.6 8.79-13.9 4.21-20.8-4.6-6.9-13.89-8.7-20.8-4.2-0.96 0.7-96.35 66.2-98.18 117.2-0.56 15.9 5.46 28.8 16.98 36.5 10.67 7.2 24.64 8.7 36.6 7.4 1.1 27.6-0.58 92.3-3.35 150.9l-0.71 14.9 295.45 15.8 3.14-11.7c1.65-6.2 40.37-152.9 30.6-250.3-10.76-107.3-65.54-125.2-136.06-137.4-0.86-0.2-1.73-0.3-2.58-0.3" fill="#0e2549"/><path d="m8286.1 12898s-18.51-1-51.52-13.8c-7.57-2.9-12.37-27-20.87-30.6-9.55-4-27.12 6.6-37.45 1.9-10.78-5-15.38-19.8-26.53-25.5-8.68-4.5-23.87 0.2-32.52-4.7-14.39-8.2-17.89-24.5-31.34-33.9-8.82-6.2-33.66-6.3-41.15-13.6-13.91-13.6-14.12-35.8-19.5-41-18.7-18.1-26.01-10.3-34.52-31.4 0 0-15.23 6.8-26.15 5.9-14.09-1.1-19.07-5.9-19.07-5.9l15.39 198.8 325.23-6.2" fill="#0e2549"/><path d="m8777.1 11880h-1056.6c-17.4 179.4-15.1 343.1 39 398.7 47 48.4 88.6 53.4 111.6 53.4 69 0.1 371.4-279.9 456.7-3.4 12.3 39.7 105.7-10 132.1-30.9 75.2-59.5 245.8-296.6 317.2-417.8" fill="#f9e5ef"/><path d="m7734.1 11895h1016.4c-77.99 126.6-231.91 337.2-299.95 391-23.06 18.3-83.14 48.4-104.71 41.8-2.51-0.8-3.19-1.8-3.76-3.6-19.47-63.1-51.95-104.2-96.55-122.1-89.49-35.9-205.54 28.6-290.27 75.8-34.59 19.3-70.36 39.2-84.16 39.2h-0.01c-35.96 0-68.95-16-100.87-48.9-29.49-30.3-59.36-119.8-36.11-373.2zm1069.2-30h-1096.5l-1.32 13.5c-21.73 224.1-7.61 358.4 43.18 410.6 37.33 38.5 78.5 58 122.35 58h0.06c21.57 0 53.94-18.1 98.73-43 79.46-44.2 188.28-104.8 264.5-74.2 36.29 14.6 62.16 48.4 79.08 103.2 3.54 11.4 11.9 19.7 23.54 23.3 39.9 12.4 114.61-32.9 132.2-46.9 77.21-61.1 247.85-298.1 320.82-421.9l13.32-22.6" fill="#1b2746"/><path d="m6907 11632c-183.59 110.2 59.89 224.2 119.62 164.4 46.06-46 19.63-93.5 4.1-113.9 43.39 5.4 86.38-2.4 122.69-27.5 159.16-110 68.55-277.7 68.55-277.7s-56.08-289.3-261.19-171.7c-243.7 139.7-181.71 334.4-53.77 426.4" fill="#0e2549"/><path d="m6963.9 11303s10.53-218.3 2.28-229.9c-28.23-39.5-112.5-74.7-131.76-80.1-19.24-5.3 316.49-130.5 316.49-130.5l160.13 80-62.37 55.4s-52.27 25.8-75.34 49.3-35.86 245.5-35.86 245.5l-173.57 10.3" fill="#fff"/><path d="m6868.5 10990c50.86-22.9 170.64-69.6 281.52-111l134.46 67.1-44.32 39.4c-9.87 5-55.26 28.6-77.56 51.3-22.92 23.3-34.73 167.7-39.34 241.8l-143.62 8.5c9.6-207.3 2-218-1.28-222.6-22.7-31.8-74.84-59.4-109.86-74.5zm283.25-143.7-6.11 2.3c-327.99 122.3-327.61 131.1-327.03 144.5 0.3 6.8 5.03 12.6 11.77 14.5 20.15 5.6 96.55 38.9 122.37 72.7 3.43 18.1 0.79 125.6-3.86 222l-0.8 16.7 203.54-12 0.78-13.3c5.88-102 19.68-221.3 31.72-236 17.33-17.7 57.24-39.4 71.15-46.2l1.81-0.9 80.46-71.5-185.8-92.8" fill="#0e2549"/><path d="m6986.7 11238c-25.78 16.9-90.91 80.1-92.36 113.7-1.47 33.6 36.89 30 48.63 24.8 7.82-3.5-4.87 185.3-4.87 185.3l259.36 21.4s43.71-170.5 35.11-263.4c-8.64-93.2-51.18-117.7-118.96-121.2l-126.91 39.4" fill="#fff"/><path d="m7113.6 11184c-7.93 0-14.55 6.2-14.97 14.2-0.43 8.3 5.92 15.4 14.2 15.8 60.35 3.1 96.85 21.8 104.8 107.6 6.96 75.1-22.08 205.6-31.7 246l-231.89-19.1c11.43-174.5 5.77-178.5-1.99-183.9l-6.94-4.8-8.23 3.4c-4.98 2.2-18.33 3.4-24.26-0.6-1.08-0.7-3.62-2.5-3.3-9.8 1.08-24.9 58.79-84.3 85.58-101.8 6.94-4.5 8.89-13.8 4.37-20.8-4.53-6.9-13.83-8.9-20.77-4.3-22.46 14.6-97.28 82.5-99.15 125.6-0.67 15.5 5.14 28.2 16.38 35.9 10.11 6.9 23.31 8.5 34.8 7.6 0.4 29.6-3.03 101.2-7.4 166.2l-0.99 14.8 286.71 23.6 3.14-12.3c1.81-7.1 44.25-174.1 35.51-268.5-8.34-90-48.15-130.3-133.11-134.8h-0.79" fill="#0e2549"/><path d="m7464.2 10647c1 72-4.98 271.4-107.08 339.7-36.9 24.8-59.7 41.7-77.1 51-0.3 0.2-0.6 0.3-0.9 0.3-9.8 5.6-17.8 8.2-25.6 8.8-0.8 0.1-1.7 0.1-2.5 0.1-1.8-0.1-3.5-0.3-5.2-0.8h-0.1c-0.1 0.1-0.1 0.1-0.2 0-11-2.6-20.1-12.2-29.2-24.8-1-1.4-2-2.7-3-4.2-1.7-2.4-3.4-4.8-5.1-7.4v-0.2c-35.2-51.7-80.2-126.9-243.5-16.2-3 2-6 4.1-9.1 6.2-10.4 7.3-21.2 15.4-32.6 24.2-3 2.4-6.7 3.9-10.8 4.7-3.4 0.7-7.1 0.9-11.1 0.7-13.6-0.5-30.2-5.6-46.1-11.9-14.9-5.7-29.3-12.5-40.4-17.4-60.9-26.8-62-76.3-50.5-122.7 10.9-44 33.1-85.2 26.3-101.7l2.8-55.8 7.03-72 663.95-0.6" fill="#e2474b"/><path d="m7497 10666c-0.9-8.8-2.1-22.5-3.5-31.1l-239.15-1.2c-14.6 103.4-26.55 199.2-32.95 269.1v0.1c-4.7 51.9-6.7 92.4-5.4 118.2 0.1 2.1 0.3 4 0.4 5.8 1.5 17.5 4.7 26.8 10.2 26.6 6.2-0.2 12.6-0.8 19-1.8 0.1 0.1 0.1 0.1 0.2 0h0.1c2.4-0.3 4.8-0.7 7.2-1.2 8.7-1.6 17.4-3.9 26.1-6.9 0.3 0 0.6-0.1 0.9-0.3 50.6-17.3 101.9-57.3 139.4-122.3 30.1-52.2 86-174 77.5-255" fill="#f9e5ef"/><path d="m7226.1 11038h0.08-0.08zm10.28-135c5.84-63.6 16.52-151.5 30.98-254.8l212.91 1.1c0.43 3.9 0.82 7.9 1.18 11.6l0.62 6.1c7.47 71.3-41.1 186.2-75.58 246-32.47 56.2-78.52 97.1-129.8 115.1h-0.02l-2.38 0.8c-7.96 2.7-16 4.9-23.91 6.3-0.19 0-0.38 0.1-0.57 0.1l-5.39 0.9h-4.75l-0.82 0.8c-1.94 0.2-3.87 0.4-5.79 0.6-0.57-2.6-1.22-6.5-1.73-12.5l-0.36-5.2c-1.23-24.3 0.57-63.4 5.35-116.2zm4.92-284.9-1.83 13c-15.5 109.7-26.92 203-33.02 269.8l-0.07 0.8c-4.86 53.8-6.67 94.1-5.38 119.6 0.06 1.3 0.16 2.6 0.26 3.8l0.15 2.1c0.99 11.7 3.33 41.2 25.72 40.8 6.23-0.3 12.64-0.8 19.02-1.8l5.67 0.1 1.04-1c1.1-0.2 2.19-0.4 3.29-0.7 8.25-1.5 16.91-3.7 25.5-6.5h2.1l2.67-1.7c58.14-20.3 109.96-65.9 146.06-128.4 31.34-54.4 88.27-179.5 79.42-264.1l-0.6-6c-0.81-8.3-1.83-18.7-3.01-25.9l-2.03-12.6-264.96-1.3" fill="#1b2746"/><path d="m6974.4 10899c-1.7 11.6-3.5 22.6-5.2 32.9-4.6 27.7-9.1 50.5-13.5 67.7-5.3 21.4-10.4 34.2-15.2 36.8-3 1.7-6.3 3-9.9 3.8-5.2 1.4-11.1 2-17.4 2-14.2-0.1-30.6-3.3-47.4-8.4 0 0-191.4-12.2-240.4-273.3-8.4-44.5-16.3-87.9-23.6-129.5l195.9 0.7 2.1 0.1h17l118.7 0.5 66.2 0.2h5.8c-11.3 105.5-22.5 197.3-33.1 266.5" fill="#f9e5ef"/><path d="m6931.3 11025zm1.79-1.4c0.07 0 0.15-0.1 0.23-0.1-0.08 0-0.16 0.1-0.23 0.1zm-19.93 3.9c-11.69-0.1-26.61-2.8-43.04-7.8l-3.41-0.6c-7.3-0.5-180.49-15.4-226.61-261.1-7.11-37.7-13.97-75.1-20.45-111.7l371.11 1.4c-11.21 103.4-21.71 187.2-31.23 249.3l-0.01 0.1c-1.69 11.5-3.48 22.4-5.16 32.6-4.61 27.8-9.07 50.2-13.23 66.4-4.8 19.4-8.11 26.1-9.34 28.2-1.5 0.7-2.96 1.2-4.49 1.5-4.3 1.2-8.84 1.7-14.14 1.7zm-329.27-411.3 3.1 17.7c7.4 42.1 15.35 85.8 23.63 129.6 47.85 255 230.94 283 252.19 285.3 18.85 5.7 35.75 8.6 50.24 8.7 8.04 0 15.21-0.9 21.41-2.6 4.3-0.9 9.03-2.7 13.4-5.2 7.68-4.1 14.23-13.4 22.36-46.2 4.35-17 8.98-40.2 13.74-68.9 1.71-10.4 3.52-21.4 5.23-33.1 10.09-65.9 21.25-155.7 33.19-267.1l1.78-16.6-225.8-0.8-214.47-0.8" fill="#1b2746"/><path d="m7245.9 10914 67.8-117.4-34.7-162.6h-0.1l-33.2-0.1-18.2-0.1-18.9 261.5-8.3 114.7v0.2l-0.8 11-5.4 74 49-47.8 2-2 73-71.2-29-19.2-48.3-32.1 5.1-8.9" fill="#fff"/><path d="m7209.6 11062 30.02-415.1 28.88 0.1 31.47 147.5-76.47 132.6 74 49.1zm5.83-441.2-36.77 507.7 160.09-156.2-80.58-53.4 69.33-120.1-37.95-177.7-74.12-0.3" fill="#0e2549"/><path d="m7001.7 10633-66.2-0.2-61.9 139.2 63.8 131.8-114 41.7 31.7 34.3 33.4 36.2 12.7 13.7 12 13 41.9 45.4 2.6-25 7.1-69.2 6.3-62.3 3.3-32.1 27.3-266.5" fill="#fff"/><path d="m6849.7 10952 108.32-39.6-14.41 141.3zm40.44-180.1 55.1-123.9 39.86 0.1-27.05 264.1zm35.64-154-68.7 154.5 59.6 123.2-119.56 43.7 169.47 183.5 51.73-504.6-92.54-0.3" fill="#0e2549"/><path d="m7233.5 11445s-26.6 98.3-117.33 94.7c-47.85-1.9-105.67-14.1-132.24-39.3-25.61-24.3-44.63-126-44.63-126l-46.34 190.9 294.77 49.9 45.77-170.2" fill="#0e2549"/><path d="m3687.5 8333.9s335.43-928.5 335.43-1306c0-377.4 67.4-732.2 346.92-845.6 279.53-113.4 481.29 58.5 528.64 126.5 58.37 83.9 174.01 615.9-397.25 1237.6-224.35 244.2-813.74 787.5-813.74 787.5" fill="#eab7c2"/><path d="m3722 8281.5c73.44-209.9 315.96-927.8 315.96-1253.6 0-467.5 110.42-739.6 337.56-831.7 271.4-110.1 464.45 54.8 510.69 121.2 48.49 69.7 181.45 590.4-395.99 1218.9-185.44 201.8-626.48 613.7-768.22 745.2zm833.3-2152.2c-58.4 0-122.41 11.3-191.06 39.1-239.73 97.2-356.28 378.4-356.28 859.5 0 370.6-331.19 1291.6-334.54 1300.9l-20.85 57.7 45.13-41.6c5.89-5.4 592.41-546.5 814.61-788.3 306.59-333.7 407.69-634.6 438.51-828.3 34.97-219.7-5.97-379.1-39.99-428-37.98-54.6-167.64-171-355.53-171" fill="#1b2746"/><path d="m4846 5643.4c-6.64 0-12.35 5-13.1 11.8-68.82 619.4-705.09 1911.3-711.51 1924.3-3.23 6.6-0.55 14.5 5.97 17.7 6.54 3.2 14.45 0.5 17.67-6 6.44-13 644.75-1309.1 714.09-1933.1 0.8-7.3-4.41-13.8-11.65-14.6-0.5 0-0.99-0.1-1.47-0.1" fill="#0e2549"/><path d="m4612.6 9414.8s-285.82-1231.5-129.23-1979.4c156.6-747.9 315.66-1029.1 515.57-827.4 199.92 201.7 135.53 1503.8-5.73 1914.6-141.26 410.7-380.61 892.2-380.61 892.2" fill="#eab7c2"/><path d="m4618 9369.6c-47.62-221.7-257.92-1272.2-119.94-1931.1 115.69-552.6 231.45-838.8 353.88-874.9 42.59-12.6 87.18 5.4 136.35 55 85.57 86.3 130.7 410.8 120.73 868-8.95 410.6-62.4 834.6-129.99 1031.1-116.41 338.5-301.8 729.5-361.03 851.9zm260.09-2839.9c-11.65 0-23.21 1.7-34.65 5.1-135.86 40.1-254.94 325.3-374.75 897.5-155.47 742.5 126.44 1973.5 129.3 1985.8l9.45 40.7 18.59-37.4c2.4-4.8 241.41-487 381.37-893.9 69.57-202.3 122.46-620.4 131.62-1040.3 4.87-223.3 2-757.1-129.42-889.7-44.68-45.1-88.77-67.8-131.51-67.8" fill="#1b2746"/><path d="m4983.6 5643.4c-0.36 0-0.72 0-1.08 0.1-7.26 0.6-12.67 6.9-12.08 14.2 30.82 378.1-299.31 2867.8-302.65 2892.9-0.96 7.2 4.11 13.8 11.34 14.8 7.29 0.9 13.85-4.1 14.81-11.3 13.64-102.7 333.84-2517.6 302.79-2898.6-0.56-6.8-6.33-12.1-13.13-12.1" fill="#0e2549"/><path d="m6039.4 8313s-335.43-928.5-335.43-1305.9c0-377.5-67.39-732.3-346.92-845.7-279.53-113.3-481.29 58.6-528.64 126.6-58.37 83.8-174.01 615.8 397.25 1237.6 224.35 244.1 813.74 787.4 813.74 787.4" fill="#eab7c2"/><path d="m6005 8260.6c-141.74-131.5-582.79-543.4-768.22-745.2-577.45-628.5-444.48-1149.2-395.99-1218.8 46.25-66.5 239.31-231.3 510.69-121.3 227.14 92.2 337.56 364.2 337.56 831.8 0 325.8 242.53 1043.7 315.96 1253.5zm-833.3-2152.1c-187.91 0-317.54 116.3-355.53 170.9-34.02 48.9-74.96 208.3-39.99 428 30.82 193.7 131.92 494.6 438.51 828.3 222.2 241.9 808.71 782.9 814.61 788.3l45.13 41.6-20.86-57.7c-3.34-9.2-334.53-930.3-334.53-1300.8 0-481.2-116.54-762.3-356.28-859.6-68.63-27.8-132.68-39-191.06-39" fill="#1b2746"/><path d="m4881 5622.6c-0.49 0-0.98 0-1.47 0.1-7.24 0.8-12.46 7.3-11.66 14.5 69.34 624 707.65 1920.1 714.09 1933.2 3.23 6.5 11.13 9.2 17.67 5.9 6.53-3.2 9.2-11.1 5.97-17.6-6.41-13-642.68-1305-711.51-1924.4-0.75-6.7-6.46-11.7-13.09-11.7" fill="#0e2549"/><path d="m4120.5 5656.6h1556l-186.35-1663.2-1192.7-3.6-177.03 1666.8" fill="#e2474b"/><path d="m14717 6027.5s380.1-1940.5 353.4-2033.8c-26.6-93.4-569.5 1992.7-569.5 1992.7l216.1 41.1" fill="#0e2549"/><path d="m14137 5853.8s-6.1-1801.8-52.7-1861.8c-46.7-60-160 1844.2-160 1844.2l212.7 17.6" fill="#0e2549"/><path d="m12917 5853.8s306.7-1817.9 246.7-1863.2c-60-45.2-440.3 1871.1-440.3 1871.1l193.6-7.9" fill="#0e2549"/><path d="m12418 5882.8s-620.3-1850.8-733.6-1864.1c-113.4-13.3 519 1883.4 519 1883.4l214.6-19.3" fill="#0e2549"/><path d="m14477 9762s884 112.2 924-265.6c40-377.7 136-3187.7-462-3487.7s-2748-130-3008-70-200 970-200 970l2230 300 276.7 2470 239.3 83.3" fill="#eab7c2"/><path d="m11745 6895.5c-2.8-50.3-11.8-247.8 3.2-448.5 22.4-300.1 86.7-470.8 185.9-493.7 235.3-54.3 2393.7-234.3 2997.9 68.8 244.6 122.7 404.4 711.3 462 1702.2 45.2 778.6 12.9 1571.2-8.2 1770.5-6.2 58.1-34.5 107.5-84.3 146.9-220.2 174.3-787.7 109.6-821.4 105.6l-228.8-79.7-277-2472.2zm1816.6-1073.9c-741.9 0-1499.9 71.5-1634.3 102.5-269.3 62.1-214 947.9-211.5 985.6l0.8 12.2 12.1 1.7 2218.4 298.4 276.5 2467.7 251.2 87.2c24.8 3.1 609.7 74.8 845.4-111.7 56.3-44.6 88.4-100.8 95.4-167.2 21.2-200 53.7-995.1 8.3-1775.5-26-447.9-73.3-817.7-140.5-1098.9-82.7-345.9-196.4-557.3-338-628.3-263.6-132.3-819-173.7-1383.8-173.7" fill="#1b2746"/><path d="m14960 8896c1.5 8.1-3.9 16-12.1 17.4-8.1 1.5-15.9-3.9-17.4-12-2.9-15.8-284.7-1568.9-270.7-2166.5h-912.4c-9 0-16.2-7.3-16.2-16.2 0-9 7.2-16.2 16.2-16.2h1123.3c9 0 16.2 7.2 16.2 16.2 0 8.9-7.2 16.2-16.2 16.2h-180.9c-14.2 593.8 267.3 2145.4 270.2 2161.1" fill="#0e2549"/><path d="m10112 5169.7-175.88-746.9h499.48l134.7 503-458.3 243.9" fill="#fff"/><path d="m9959.7 4441.5h461.61l127.1 474.8-423.8 225.6zm490.21-37.4h-537.36l186.86 793.5 492.8-262.3-142.3-531.2" fill="#0e2549"/><path d="m9908.7 4444.6s-721.84-229.1-746.73-417.9h1294.3v417.9h-547.58" fill="#e2474b"/><path d="m11877 4788.1 58.4-372.5h472.7l-50 405.6-481.1-33.1" fill="#fff"/><path d="m11952 4434.2h435.6l-45.2 367.1-443.2-30.4zm477.8-37.3h-509.7l-64.1 408.5 519.1 35.6 54.7-444.1" fill="#0e2549"/><path d="m11908 4437.3s-721.8-229.1-746.7-417.9h1294.3v417.9h-547.6" fill="#e2474b"/><path d="m11114 4091.2v-108.6h1375.2v124.1l-1375.2-15.5" fill="#0e2549"/><path d="m10497 4105.6v-115.8h-1375.3v124.2l1375.3-8.4" fill="#0e2549"/><path d="m10353 4336h0.1zm-249.2-169.5c-7.7 0-14.6 5.2-16.6 13-2.3 9.2 3.2 18.5 12.4 20.8l131.5 33.3h-140c-12.4 0-22.6 8.9-24.3 21.2-1.6 12.3 5.8 23.6 17.8 26.9l196.3 54.3h-127.7c-9.4 0-17.1 7.6-17.1 17.1s7.7 17.1 17.1 17.1h199.8c12.4 0 22.6-8.9 24.3-21.2 1.6-12.3-5.8-23.6-17.8-26.9l-196.3-54.2h146.2c12.6 0 22.8-9.1 24.3-21.5 1.6-12.4-6.1-23.7-18.2-26.8l-207.5-52.5c-1.4-0.4-2.8-0.6-4.2-0.6" fill="#0e2549"/><path d="m12369 4328.7h0.1zm-249.1-169.4c-7.7 0-14.7 5.2-16.6 12.9-2.4 9.2 3.2 18.5 12.3 20.8l131.5 33.3h-139.9c-12.5 0-22.7 9-24.3 21.3-1.7 12.2 5.8 23.6 17.7 26.9l196.4 54.2h-127.7c-9.5 0-17.2 7.7-17.2 17.1 0 9.5 7.7 17.2 17.2 17.2h199.7c12.4 0 22.7-8.9 24.3-21.2 1.7-12.3-5.8-23.6-17.7-27l-196.4-54.2h146.3c12.5 0 22.8-9 24.3-21.4 1.6-12.5-6.1-23.8-18.3-26.8l-207.4-52.6c-1.4-0.3-2.9-0.5-4.2-0.5" fill="#0e2549"/><path d="m13008 11741s55.9-587.8 8.9-652.8-126.1-343.2-126.1-343.2l262.7-1179.6 971.8 93.9-142.7 904.7s-237.8 451.5-264.6 525.7c-37 102.7-37.1 651.3-37.1 651.3h-672.9" fill="#fff"/><path d="m13142 9549.6-266.4 1196.2 1 3.7c3.3 11.4 80.3 281.5 128.4 347.9 31.8 44 9.7 417.5-11.8 642.6-0.7 8.2 5.3 15.6 13.5 16.3 8.3 0.9 15.6-5.2 16.4-13.5 5.8-60.7 55.1-595.4 6.2-663-42.1-58.2-113.3-302.1-122.8-334.9l259-1162.9 942.7 91.1-139.9 886.5c-20 38.1-238.1 453-264.2 525.4-37.5 104-38 633.9-38 656.4 0 8.3 6.7 15 15 15 8.2 0 15-6.7 15-15 0-5.5 0.5-547.1 36.2-646.2 26.1-72.4 261.4-519.3 263.7-523.8l1.2-2.2 0.4-2.5 145.2-920.4-1000.8-96.7" fill="#0e2549"/><path d="m13142 12853c-121.2-16.9-416.1-54.1-409.1-271.6 8-248.2 60.2-565.9 90.6-733.1 11.9-66 70.3-113.2 137.2-111l749.3 24.1c68.6 2.3 124.7 55.7 130.3 124.3 18.8 230.9 54.5 719.6 24.9 792.1-100.9 246.9-531.3 201.9-723.2 175.2" fill="#0e2549"/><path d="m13657 11597c39.1 43.3 50 210.1 48.4 400 0 5.5 2.8 10.5 7.3 13.4 48.2 30.9 117.4 95.9 112.3 189.9-4.4 81.5-62.8 62.5-108.2 34.8-8.1-5-18.4 0.8-18.9 10.6-11 228.6-30 428.8-30 428.8l-890.4-28.7s8.3-203.9 24.3-432.4c0.7-10.3 55.7-554.7 78.6-603.4 12.5-26.5 35.6-48.2 66.2-65.3 0 0 58.6-44.9 382.2-34.5l328.2 86.8" fill="#fff"/><path d="m13235 11494c-228.3 0-287 31.7-296.9 38.4-34.3 19.4-58.4 43.5-71.6 71.6-24.9 52.8-79.8 603.6-80.1 608.7-15.7 226.1-24.2 430.9-24.3 432.9l-0.6 15.1 919.5 29.7 1.4-14.1c0.2-2 19-200.9 29.9-425.7 40.2 23.7 72.1 29.6 94.8 17.6 19.7-10.3 30.6-32.8 32.5-66.7 6-110.8-81.4-179.1-119.2-203.3 1.5-235.6-15.6-369.8-52.6-410.9-5.6-6.1-15.1-6.6-21.2-1.1-6.2 5.6-6.7 15.1-1.1 21.2 17.6 19.6 46.9 96.3 44.5 389.9 0 10.6 5.3 20.4 14.2 26.1 33.4 21.4 110.6 81.4 105.4 176.5-0.8 15.6-4.4 35.4-16.4 41.8-12.9 6.8-38.1-0.1-69-19-8.3-5.1-18.3-5.4-26.8-0.8-8.8 4.6-14.4 13.4-14.9 23.5-9.2 191.4-24.2 364.7-28.7 414.1l-861-27.8c2.2-51.4 10.3-226.5 23.5-416.9 1.7-22.7 56.7-554.3 77.3-598 10.6-22.6 30.8-42.3 59.9-58.7l1.8-1.1c0.2-0.2 64.7-41.3 372.6-31.4 7.9 0.4 15.2-6.2 15.5-14.5 0.2-8.3-6.3-15.2-14.5-15.5-34.1-1.1-65.3-1.6-93.9-1.6" fill="#0e2549"/><path d="m13288 12147c-12.8 0-23.8 9.9-24.8 22.9l-1.5 18.4c-1.2 13.8 9.1 25.8 22.8 26.9 13.8 1.3 25.8-9.1 27-22.8l1.5-18.4c1.1-13.7-9.1-25.8-22.9-26.9-0.7-0.1-1.4-0.1-2.1-0.1" fill="#0e2549"/><path d="m12913 12120c-13.3 0-24.4 10.5-24.9 23.9l-1 21.7c-0.5 13.8 10.2 25.4 24 26 13.5 0.7 25.4-10.1 26-23.9l0.9-21.7c0.6-13.8-10.1-25.4-23.9-26h-1.1" fill="#0e2549"/><path d="m13459 12283c-5.3 0-10.5 2.9-13.2 8-46.8 88.2-220.8 36.7-222.5 36.2-7.9-2.4-16.3 2-18.7 10-2.4 7.9 2 16.3 10 18.7 8.1 2.4 199.4 59.2 257.7-50.8 3.9-7.4 1.1-16.4-6.2-20.3-2.3-1.2-4.7-1.8-7.1-1.8" fill="#0e2549"/><path d="m13086 11948c-0.9 0-1.8 0-2.7 0.2-13.2 2.4-79.3 16.2-87.4 53.1-3.2 14.9 3.9 53.5 20.8 138.1 12.5 62.1 29.5 147.1 25.4 164.6-1.3 5.5-7.6 9.5-12.6 11.9-29.9 14.3-98.6 11.8-167.1-21-7.4-3.6-16.4-0.4-20 7-3.6 7.5-0.4 16.5 7.1 20 69.6 33.4 149 42 192.9 21 19.8-9.4 26.6-22.6 28.9-32 5.2-22.3-6-81.9-25.2-177.4-10.2-50.9-22.9-114.4-20.9-125.8 2.5-11.3 35.4-24.9 63.4-30 8.2-1.5 13.6-9.3 12.1-17.4-1.3-7.3-7.6-12.3-14.7-12.3" fill="#0e2549"/><path d="m12996 11842c-9.7-12.2 33.4-107 77.3-101.7 112.7 13.5 177.2 146.8 150.3 138.9-10.5-3.1-81.7-24.6-129.3-33.3-64.7-11.7-87.3 10-98.3-3.9" fill="#0e2549"/><path d="m13821 12568c-91.2 154 56.5 192.9-36.6 271.1-55.6 46.7-156.5 42.9-156.5 42.9l-3.5-5.1c-17.8 31.5-47.7 54-97.7 47-137.5-19.4-155.4 116.8-284.3 97.8-128.9-19.1-58.4-56.3-191-91.1s-200.1 38.8-235.1-66.2c-35.1-105.1-139.6-80.5-184.5-152s-28.5-153.4 37.2-179c65.7-25.5-33.2-83.7 20.7-140.8s275-46.2 310.7 40.7 54.4 145.9 136.6 152.1c82.2 6.1 183-34.2 238.5-17.1s130.1 78.5 160.9 63.8c30.8-14.9 63.7-65.5 93.8-60.8 2.4 0.3 5.3 1.4 8.3 2.9 30.7-29.8 59.6-59.4 56.9-112.1-3.5-70.6 169.8 31.1 125.6 105.9" fill="#0e2549"/><path d="m12407 7900.7s-1586.5 65.9-1626.5-297.6c-40-363.4 932.5-2934.4 932.5-2934.4l762.5 101.5s-548.6 1885.2-524.8 2020.5c94 534.9 2286.5 1184.7 2286.5 1184.7l-1830.2-74.7" fill="#0e2549"/><path d="m14404 7906s222.8-1173.2-842.6-1245.5c-1075.8-73-1990.7 218.2-2224.9 34-68.6-54-641.6-1995.3-641.6-1995.3l-834.11 122s746.81 2521.3 872.91 2784.9c119.6 250 576.9 278.5 1550.3 299.9 973.3 21.4 2120 0 2120 0" fill="#0e2549"/><path d="m14497 9640.6c80-591.6-46.7-1831.9-46.7-1831.9l-2166.6 81.7s401.9 3326.6 700 3364.9c125.7 16.1 260-154.1 593.3 0s840-1023 920-1614.7" fill="#e2474b"/><path d="m9960 9008.2s291.4 359 757.6 203.8c52.8-17.5 128.3-55.7 76.5-203.8h-834.1" fill="#e2474b"/><path d="m9994.3 9023.2h789.02c16.4 51 17.5 91.5 3.3 120.4-15.5 31.5-47.5 45.5-73.7 54.2-379.1 126.1-642.5-97.8-718.62-174.6zm810.52-30h-876.3l19.85 24.5c2.97 3.6 303.45 365.2 774.05 208.5 31.7-10.5 70.7-27.9 91.1-69.4 18.8-38.2 17-89.9-5.2-153.6l-3.5-10" fill="#0e2549"/><path d="m10910 9051.7c181.9 15.7 978.7-0.7 978.7-0.7l-83.1 332s-850.2-144.7-914.5-126.2c-120.8 34.7-200.3 75.5-343.1 81.1-188.7 7.4-445.4-57.5-442.6-108.9 1.6-27.6 336.3 14.1 401.4-12 183.9-73.8 273.6-176.4 403.2-165.3" fill="#fff"/><path d="m10410 9241c45.5 0 82.9-2.4 102-10.1 70.3-28.2 126.9-60.5 176.8-88.9 80.1-45.8 143.4-81.8 219.6-75.3 166.8 14.3 834.2 2.1 960.6-0.3l-75 299.5c-134.1-22.7-844.5-141.7-907.5-123.5-31.6 9.1-60.3 18.6-88.1 27.7-79.3 26.2-147.8 48.8-251.3 52.8-164.4 6.4-381-44-422.6-86.3-0.2-0.2-0.4-0.4-0.5-0.6 26.5-3.8 99.5-0.9 154.8 1.3 45.3 1.9 91.3 3.7 131.2 3.7zm499.6-189.3h0.1zm998-16.1-19.6 0.4c-8 0.2-798.1 16.2-977.1 0.8-85.4-7.4-152.3 30.8-237 79.1-49 28-104.7 59.8-173.1 87.2-29.8 12-135.7 7.7-220.8 4.3-155.1-6.3-188.5-5.2-189.9 20.8-0.6 10.1 3.8 20 13 29.4 51.9 52.8 280.7 101.7 445.1 95.3 107.8-4.2 181.5-28.5 259.6-54.3 27.5-9.1 55.9-18.4 87-27.4 44.7-12.9 567.5 68.7 907.9 126.6l13.7 2.3 91.2-364.5" fill="#0e2549"/><path d="m13101 10877s-184.4-579.3-433-763.4-1565.6-549.7-1565.6-549.7l-40.1-544.3s1254.7-30 1485.6 70.5c280.1 121.9 1011 502.8 1220.4 1162.1 209.4 659.2-667.3 624.8-667.3 624.8" fill="#e2474b"/><path d="m11224 9583.5c-6.7 0-12.8 4.5-14.5 11.3-2 8.1 2.8 16.2 10.9 18.2 9.7 2.5 979.2 248.3 1389.1 481.3 309 175.6 444.2 774.1 445.5 780.2 1.8 8 9.7 13.2 17.9 11.4 8.1-1.8 13.2-9.8 11.4-17.9-5.5-25.1-139.5-617.7-460-799.8-413.4-234.9-1386.8-481.8-1396.6-484.3-1.2-0.3-2.5-0.4-3.7-0.4" fill="#0e2549"/><path d="m12307 9029.5c-7.4 0-13.8 5.4-14.9 13-1.1 8.2 4.7 15.7 12.9 16.8 650.4 88.3 1020.1 487.9 1215.6 807.6 212.6 347.5 271.5 678.5 272.1 681.8 1.4 8.2 9.2 13.7 17.4 12.3 8.1-1.4 13.6-9.2 12.2-17.4-0.6-3.3-60.3-339.2-275.5-691.4-126.6-207.1-281.4-379.5-460.1-512.4-223.5-166.1-485.2-270.5-777.7-310.2-0.7-0.1-1.3-0.1-2-0.1" fill="#0e2549"/><g transform="scale(1.0272)"><path d="m16285 3869.4h-13942c-8.07 0-14.61 6.62-14.61 14.6 0 8.08 6.54 14.6 14.61 14.6h13942c8.1 0 14.6-6.52 14.6-14.6 0-7.98-6.5-14.6-14.6-14.6" fill="#0e2549"/></g></g></g></svg>
