<svg id="Capa_1" enable-background="new 0 0 512 512" height="512" viewBox="0 0 512 512" width="512" xmlns="http://www.w3.org/2000/svg"><g><path d="m482 100h-452c-16.569 0-30-13.431-30-30 0-16.569 13.431-30 30-30h186c0-22.091 17.909-40 40-40 22.091 0 40 17.909 40 40h186c16.569 0 30 13.431 30 30 0 16.569-13.431 30-30 30z"/><g><path d="m371 205h30v120h-30z"/><path d="m111 295h30v30h-30z"/><path d="m241 245h30v80h-30z"/></g><path d="m31 130v255c0 8.284 6.716 15 15 15h195v24.58c-17.459 6.192-30 22.865-30 42.42 0 24.813 20.187 45 45 45s45-20.187 45-45c0-19.555-12.541-36.228-30-42.42v-24.58h195c8.284 0 15-6.716 15-15v-255zm225 352c-8.271 0-15-6.729-15-15s6.729-15 15-15 15 6.729 15 15-6.729 15-15 15zm-85-142c0 8.284-6.716 15-15 15h-60c-8.284 0-15-6.716-15-15v-60c0-8.284 6.716-15 15-15h60c8.284 0 15 6.716 15 15zm130 0c0 8.284-6.716 15-15 15h-60c-8.284 0-15-6.716-15-15v-110c0-8.284 6.716-15 15-15h60c8.284 0 15 6.716 15 15zm130 0c0 8.284-6.716 15-15 15h-60c-8.284 0-15-6.716-15-15v-150c0-8.284 6.716-15 15-15h60c8.284 0 15 6.716 15 15z"/></g></svg>